<?xml version="1.0" ?><svg viewBox="0 0 576 512" xmlns="http://www.w3.org/2000/svg" xmlns:xlink="http://www.w3.org/1999/xlink"><style>:root>svg{display:none}:root>svg:target{display:block}</style><svg viewBox="0 0 32 32" id="arrow_up" xmlns="http://www.w3.org/2000/svg"><defs><style>.acls-1{fill:#231f20}</style></defs><g data-name="Layer 2" id="aLayer_2"><path class="acls-1" d="M16.47 15.12L26.34 25a1 1 0 01-1.41 1.41l-9.06-9.06-8.8 8.8a1 1 0 01-1.41 0 1 1 0 010-1.42l9.61-9.61a.85.85 0 011.2 0z"/><path class="acls-1" d="M16.47 5.54l9.87 9.88a1 1 0 01-1.41 1.41l-9.06-9.06-8.8 8.8a1 1 0 01-1.41 0 1 1 0 010-1.41l9.61-9.62a.85.85 0 011.2 0z"/></g></svg><svg viewBox="0 0 448 512" id="check" xmlns="http://www.w3.org/2000/svg"><!--! Font Awesome Pro 6.1.2 by @fontawesome - https://fontawesome.com License - https://fontawesome.com/license (Commercial License) Copyright 2022 Fonticons, Inc.--><path d="M438.6 105.4c12.5 12.5 12.5 32.7 0 45.2l-256 256c-12.5 12.5-32.7 12.5-45.2 0L9.372 278.6c-12.496-12.5-12.496-32.7 0-45.2 12.498-12.5 32.758-12.5 45.258 0L159.1 338.7l234.3-233.3c12.5-12.52 32.7-12.52 45.2 0z"/></svg><svg fill="none" viewBox="0 0 82 82" id="circle" xmlns="http://www.w3.org/2000/svg"><path d="M41.371.407C19.081.407.948 18.541.948 40.83c0 22.29 18.133 40.423 40.423 40.423 22.291 0 40.424-18.134 40.424-40.423S63.662.407 41.37.407zm0 77.478c-20.432 0-37.054-16.623-37.054-37.055S20.939 3.776 41.37 3.776c20.433 0 37.055 16.622 37.055 37.054 0 20.432-16.622 37.055-37.055 37.055z" fill="#fff"/><path d="M57.442 39.414l-23.58-15.159a1.68 1.68 0 00-1.717-.062 1.682 1.682 0 00-.879 1.479v30.317a1.682 1.682 0 002.596 1.416l23.58-15.159c.48-.309.773-.843.773-1.416 0-.572-.293-1.107-.773-1.416zm-22.807 13.49V28.756l18.78 12.073-18.78 12.073z" fill="#fff"/></svg><svg viewBox="0 0 14 14" id="close_icon" xmlns="http://www.w3.org/2000/svg"><path d="M14 1.4L12.6 0 7 5.6 1.4 0 0 1.4 5.6 7 0 12.6 1.4 14 7 8.4l5.6 5.6 1.4-1.4L8.4 7 14 1.4z" fill-rule="evenodd"/></svg><svg id="email" version="1.1" viewBox="0 0 32 32" xml:space="preserve" xmlns="http://www.w3.org/2000/svg"><style>.est0{fill:none;stroke:#245852;stroke-width:2;stroke-linecap:round;stroke-linejoin:round;stroke-miterlimit:10}</style><path class="est0" d="M22.6 26c-2.2 1.5-5 2.3-8 1.9-5.5-.6-10-5.1-10.6-10.6C3.3 10.1 8.9 4 16 4h.8c7.5.5 12.4 8.3 10 15.5v.1C26.3 21 25 22 23.5 22c-1.9 0-3.5-1.6-3.5-3.5V11"/><path class="est0" d="M16 21c-2.2 0-4-1.8-4-4v-2c0-2.2 1.8-4 4-4s4 1.8 4 4v2c0 2.2-1.8 4-4 4z"/></svg><svg viewBox="0 0 640 512" id="eye_close" xmlns="http://www.w3.org/2000/svg"><!--! Font Awesome Pro 6.1.2 by @fontawesome - https://fontawesome.com License - https://fontawesome.com/license (Commercial License) Copyright 2022 Fonticons, Inc.--><path d="M150.7 92.77C195 58.27 251.8 32 320 32c80.8 0 145.5 36.84 192.6 80.6 46.8 43.4 78.1 94.5 92.9 131.1 3.3 7.9 3.3 16.7 0 24.6-13.4 32.3-40.3 77.8-79.9 118.4l105.2 82.4c10.4 8.2 12.3 23.3 4.1 33.7-8.2 10.4-23.3 12.3-33.7 4.1L9.196 42.89C-1.236 34.71-3.065 19.63 5.112 9.196 13.29-1.236 28.37-3.065 38.81 5.112L150.7 92.77zm72.4 56.73l90.3 70.8c4.2-8.5 6.6-18.1 6.6-29.2 0-10.6-3.9-21.4-8.4-30.7 2.8-.3 5.6-1.3 8.4-1.3 53 0 96 43 96 96 0 14.6-2.9 27.6-8.9 39.4l39.5 30.2c11.1-20.4 17.4-43.8 17.4-69.6 0-78.6-64.5-144-144-144-37.3 0-71.4 15.1-96.9 38.4zM320 480c-80.8 0-145.5-36.8-192.6-80.6-46.78-44.3-78.06-95.4-92.94-131.1a31.98 31.98 0 010-24.6c9.54-22.9 25.83-52.5 48.63-82.2l94.31 74.3c-.9 6.6-1.4 13.3-1.4 19.3 0 80.4 64.5 144.9 144 144.9 18.7 0 36.6-3.6 53-10.1l73.2 57.6C409.9 467.1 367.8 480 320 480z"/></svg><svg viewBox="0 0 576 512" id="eye_open" xmlns="http://www.w3.org/2000/svg"><!--! Font Awesome Pro 6.1.2 by @fontawesome - https://fontawesome.com License - https://fontawesome.com/license (Commercial License) Copyright 2022 Fonticons, Inc.--><path stroke="red" d="M279.6 160.4c2.8-.3 5.6-.4 8.4-.4 53 0 96 42.1 96 96 0 53-43 96-96 96-53.9 0-96-43-96-96 0-2.8.1-5.6.4-8.4 9.3 4.5 20.1 8.4 31.6 8.4 35.3 0 64-28.7 64-64 0-11.5-3.9-22.3-8.4-31.6zm201-47.8c46.8 43.4 78.1 94.5 92.9 131.1 3.3 7.9 3.3 16.7 0 24.6-14.8 35.7-46.1 86.8-92.9 131.1C433.5 443.2 368.8 480 288 480s-145.5-36.8-192.58-80.6C48.62 355.1 17.34 304 2.461 268.3a31.967 31.967 0 010-24.6C17.34 207.1 48.62 156 95.42 112.6 142.5 68.84 207.2 32 288 32c80.8 0 145.5 36.84 192.6 80.6v0zM288 112c-79.5 0-144 64.5-144 144s64.5 144 144 144 144-64.5 144-144-64.5-144-144-144z"/></svg><svg viewBox="0 0 24 24" fill="#245852" id="user_icon" xmlns="http://www.w3.org/2000/svg"><path d="M12 2a5 5 0 105 5 5 5 0 00-5-5zm0 8a3 3 0 113-3 3 3 0 01-3 3zm9 11v-1a7 7 0 00-7-7h-4a7 7 0 00-7 7v1h2v-1a5 5 0 015-5h4a5 5 0 015 5v1z"/></svg></svg>